<svg xmlns="http://www.w3.org/2000/svg" viewBox="0 0 32 40" x="0px" y="0px"><title>book, knowledge, education, study, enterprice</title><g data-name="Layer 2"><path d="M29.67,2.47A3.17,3.17,0,0,0,26.77,2L16.38,5.48a1.1,1.1,0,0,1-.76,0L5.23,2a3.15,3.15,0,0,0-2.89.45A3.17,3.17,0,0,0,1,5.07V23.74a3.21,3.21,0,0,0,2.2,3.05L15,30.72a3.56,3.56,0,0,0,1,.16,3.26,3.26,0,0,0,1-.17L28.8,26.79A3.21,3.21,0,0,0,31,23.74V5.07A3.19,3.19,0,0,0,29.67,2.47ZM3.83,24.89A1.21,1.21,0,0,1,3,23.74V5.07a1.19,1.19,0,0,1,.5-1,1.25,1.25,0,0,1,.71-.23,1.32,1.32,0,0,1,.39.06L15,7.38h0V28.61Z"/></g><text x="0" y="47" fill="#000000" font-size="5px" font-weight="bold" font-family="'Helvetica Neue', Helvetica, Arial-Unicode, Arial, Sans-serif">Created by Phoenix Dungeon</text><text x="0" y="52" fill="#000000" font-size="5px" font-weight="bold" font-family="'Helvetica Neue', Helvetica, Arial-Unicode, Arial, Sans-serif">from the Noun Project</text></svg>