<?xml version="1.0" encoding="UTF-8" standalone="no"?>
<svg
   viewBox="0 0 31 31"
   x="0px"
   y="0px"
   version="1.1"
   id="svg2"
   sodipodi:docname="myfavicon.svg"
   width="31"
   height="31"
   inkscape:version="1.3 (0e150ed6c4, 2023-07-21)"
   xmlns:inkscape="http://www.inkscape.org/namespaces/inkscape"
   xmlns:sodipodi="http://sodipodi.sourceforge.net/DTD/sodipodi-0.dtd"
   xmlns="http://www.w3.org/2000/svg"
   xmlns:svg="http://www.w3.org/2000/svg"
   xmlns:rdf="http://www.w3.org/1999/02/22-rdf-syntax-ns#"
   xmlns:cc="http://creativecommons.org/ns#"
   xmlns:dc="http://purl.org/dc/elements/1.1/">
  <defs
     id="defs2" />
  <sodipodi:namedview
     id="namedview2"
     pagecolor="#ffffff"
     bordercolor="#666666"
     borderopacity="1.0"
     inkscape:showpageshadow="2"
     inkscape:pageopacity="0.0"
     inkscape:pagecheckerboard="0"
     inkscape:deskcolor="#d1d1d1"
     inkscape:zoom="19.993444"
     inkscape:cx="7.9776151"
     inkscape:cy="14.97991"
     inkscape:window-width="2560"
     inkscape:window-height="1369"
     inkscape:window-x="-8"
     inkscape:window-y="-8"
     inkscape:window-maximized="1"
     inkscape:current-layer="svg2" />
  <title
     id="title1">book, knowledge, education, study, enterprice</title>
  <g
     data-name="Layer 2"
     id="g1"
     transform="translate(-0.49992747,-0.85586813)">
    <path
       d="M 29.67,2.47 A 3.17,3.17 0 0 0 26.77,2 L 16.38,5.48 a 1.1,1.1 0 0 1 -0.76,0 L 5.23,2 A 3.15,3.15 0 0 0 2.34,2.45 3.17,3.17 0 0 0 1,5.07 v 18.67 a 3.21,3.21 0 0 0 2.2,3.05 L 15,30.72 a 3.56,3.56 0 0 0 1,0.16 3.26,3.26 0 0 0 1,-0.17 L 28.8,26.79 A 3.21,3.21 0 0 0 31,23.74 V 5.07 A 3.19,3.19 0 0 0 29.67,2.47 Z M 3.83,24.89 A 1.21,1.21 0 0 1 3,23.74 V 5.07 A 1.19,1.19 0 0 1 3.5,4.07 1.25,1.25 0 0 1 4.21,3.84 1.32,1.32 0 0 1 4.6,3.9 L 15,7.38 v 0 21.23 z"
       id="path1" />
  </g>
  <text
     x="0"
     y="47"
     fill="#000000"
     font-size="4.99999px"
     font-weight="bold"
     font-family="'Helvetica Neue', Helvetica, Arial-Unicode, Arial, Sans-serif"
     id="text1"
     style="stroke-width:1.00001">Created by Phoenix Dungeon</text>
  <text
     x="0"
     y="52"
     fill="#000000"
     font-size="4.99999px"
     font-weight="bold"
     font-family="'Helvetica Neue', Helvetica, Arial-Unicode, Arial, Sans-serif"
     id="text2"
     style="stroke-width:1.00001">from the Noun Project</text>
  <metadata
     id="metadata2">
    <rdf:RDF>
      <cc:Work
         rdf:about="">
        <dc:title>book, knowledge, education, study, enterprice</dc:title>
      </cc:Work>
    </rdf:RDF>
  </metadata>
  <rect
     style="opacity:1;fill:none;stroke:#ffffff;stroke-width:0.304911;stroke-linecap:square;stroke-linejoin:miter;stroke-miterlimit:3.2;stroke-dasharray:none;stroke-opacity:1;paint-order:fill markers stroke"
     id="rect1"
     width="30.995089"
     height="30.995089"
     x="0.0024553526"
     y="0.0024553526" />
</svg>
